PathFileType	4	(X/Y/Z)	S00_P01_T02_Participants1-2_P1_0-100.trc
DataRate	CameraRate	NumFrames	NumMarkers	Units	OrigDataRate	OrigDataStartFrame	OrigNumFrames
60	60	8	21	m	60	50	100
Frame#	Time	RHip			RKnee			RAnkle			RBigToe			RSmallToe			RHeel			LHip			LKnee			LAnkle			LBigToe			LSmallToe			LHeel			Neck			Head			Nose			RShoulder			RElbow			RWrist			LShoulder			LElbow			LWrist		
		X1	Y1	Z1	X2	Y2	Z2	X3	Y3	Z3	X4	Y4	Z4	X5	Y5	Z5	X6	Y6	Z6	X7	Y7	Z7	X8	Y8	Z8	X9	Y9	Z9	X10	Y10	Z10	X11	Y11	Z11	X12	Y12	Z12	X13	Y13	Z13	X14	Y14	Z14	X15	Y15	Z15	X16	Y16	Z16	X17	Y17	Z17	X18	Y18	Z18	X19	Y19	Z19	X20	Y20	Z20	X21	Y21	Z21
51	0.85	-1.0509739126590176	0.9046779669774908	-0.9743949300485995	-0.8757761608165672	0.8940525188018279	-0.7313880392633785	-0.8584168989778673	0.8602822513306773	-0.9637476917938268	-0.7549349777094133	0.8536916790940712	-1.0321471676192306	-0.7777843581710364	0.833138878479128	-1.0277070608602719	-0.8764992382326375	0.8645299404817168	-1.00820493984934	-1.0515318381342489	0.9052961461758242	-1.1185723742702942	-0.8779921611960279	0.8965418226813304	-1.3568072751516262	-0.8896811943354074	0.8744772233014086	-1.1239384460381159	-0.7891684579829603	0.8662673845674415	-1.05799764062193	-0.8129002564072871	0.8464762585588735	-1.0618710851367923	-0.9114930172211317	0.8811180078651328	-1.0793543750159953	-1.0726690864617363	1.3146392214939582	-1.0458771971012293	-1.0378081795165988	1.4722469761873276	-1.0580963916064627	-0.9873896876465447	1.3778038444579503	-1.0445122402823952	-1.0799150488225655	1.2615650293494054	-0.9139287664060439	-1.0438742714962237	1.0995614750400207	-0.8100953094791119	-0.9061182423939412	0.991257418007177	-0.8929874354068755	-1.0808060537429351	1.262646004784477	-1.1783728221835115	-1.0443533226021535	1.0903001386071565	-1.2646938171660624	-0.9045109046954747	1.0021717319638532	-1.1577464166743316
52	0.8666666666666667	-1.0509692966990734	0.9017489505021326	-0.974399364715459	-0.8757704111104404	0.8911241328863053	-0.7313981541233553	-0.8572516822987231	0.8568546781339429	-0.9636060864388106	-0.7534455415002084	0.8501972767779928	-1.0314992663075504	-0.7763013824793092	0.8296375743402048	-1.027123438354154	-0.8751341971169794	0.8609980048754116	-1.008153428103971	-1.0515278081869872	0.9023674026715107	-1.1185764998768284	-0.8779897941303716	0.8936142253189397	-1.3568138863709611	-0.8896776637019888	0.8715491157338054	-1.1239453441052283	-0.7891647213453779	0.8633394673415536	-1.0580067861959	-0.8128965045300911	0.8435484220333619	-1.0618797380617229	-0.9114892143887487	0.8781897222458886	-1.0793610960645323	-1.0726592424940538	1.311708133588808	-1.045881978075789	-1.037794013645101	1.4693235704660228	-1.0580894570476254	-0.9873842443286269	1.3748716095440736	-1.0445215818627338	-1.0799066979104763	1.258633591762049	-0.9139326770264108	-1.0441249509900898	1.0978122765033504	-0.808455570945846	-0.907679623413783	0.9876578818425474	-0.8911059301616304	-1.080801028187032	1.2597147154909758	-1.1783808775036553	-1.04434951543349	1.0873705374375624	-1.2647001977425902	-0.9045545311092018	0.9976881188623584	-1.159185293447357
53	0.8833333333333333	-1.0509649433602726	0.8989853976020993	-0.9744035430690973	-0.8757649861254514	0.8883611727888238	-0.7314077095098506	-0.856152522690732	0.8536217250519199	-0.963466569271994	-0.7520425479691882	0.8469024035144783	-1.030880563008944	-0.7749042142175738	0.8263360689351062	-1.0265653914448583	-0.8738460436548008	0.8576665413318652	-1.0080978485019911	-1.0515240080598305	0.8996041069268059	-1.1185803778148051	-0.8779875606073959	0.890852008956448	-1.3568201019601813	-0.8896743320623566	0.8687864187609997	-1.1239518444359708	-0.7891611940806225	0.8605769493053466	-1.058015414092359	-0.8128929627506067	0.8407859802457452	-1.0618879005501853	-0.9114856263232548	0.8754268575184176	-1.079367430880132	-1.0726520623983504	1.3089421290861334	-1.045887855568411	-1.0377806440204485	1.4665652972980057	-1.0580828898368446	-0.9873790265791612	1.372105043260316	-1.0445302815831832	-1.079891954365709	1.2558692015877522	-0.9139313401092296	-1.044363886417746	1.0961773037259892	-0.8069182084724666	-0.9091675568040369	0.9842783126275932	-0.8893053916003543	-1.080796301192772	1.256949017938065	-1.1783884288875806	-1.0443459313399164	1.084606431926852	-1.2647061800437054	-0.9046098069668147	0.9934674918028532	-1.1605532046857796
54	0.9	-1.0509608756222355	0.8964021477857269	-0.9744074438290233	-0.875759914968327	0.8857784752179337	-0.7314166519360247	-0.8551253029096112	0.8506005812931271	-0.9633309677479088	-0.750733141113923	0.8438243761511923	-1.0302957395797214	-0.7736000151965409	0.8232517367266965	-1.02603727344177	-0.8726417626722526	0.8545532779766976	-1.0080397699890777	-1.05152045770216	0.897021097143695	-1.1185839900515329	-0.8779854725906507	0.8882700063681086	-1.356825892705224	-0.8896712173352541	0.8662039675946608	-1.1239579136740145	-0.7891578953940469	0.8579946648268884	-1.0580234782099243	-0.8128896503768628	0.8382037671352521	-1.0618955291121734	-0.9114822722482985	0.872844249751204	-1.0793733467192204	-1.0726466995762431	1.3063562707282643	-1.0458942118441166	-1.0377681431384074	1.4639869704087927	-1.0580767298563203	-0.9873741059681979	1.3695189902306102	-1.0445383362582907	-1.079877285592518	1.2532853558743007	-0.9139294202148123	-1.044589338675017	1.094662482704843	-0.8054898409762311	-0.9105712889612153	0.9811343994338024	-0.8876002499448041	-1.0807918953799118	1.2543637632006965	-1.178395444909494	-1.0443425880293118	1.0820226647291882	-1.2647117390303724	-0.9046738637893277	0.9895308728580586	-1.161840812546786
55	0.9166666666666666	-1.0509571149502184	0.8940130721084599	-0.9744110471768728	-0.8757552248617321	0.8833899086540956	-0.731424931183567	-0.8541755094910323	0.8478072922103689	-0.9632011004329677	-0.7495239452094375	0.8409793375105441	-1.0297493073523851	-0.7723954314610889	0.8204007766112102	-1.025543288837199	-0.8715278781089061	0.8516747640355546	-1.0079807902174012	-1.051517175742578	0.8946322431630696	-1.118587319959648	-0.8779835412878255	0.8858820823584949	-1.3568312316698539	-0.8896683362975344	0.8638156293041002	-1.123963520762599	-0.7891548432863148	0.8556064801997402	-1.058030935461306	-0.8128865855080628	0.8358156485925508	-1.0619025831106743	-0.9114791701529964	0.8704557668101599	-1.0793788130703557	-1.072642425207909	1.3039646230302635	-1.0459005127341572	-1.0377565788469034	1.4616024370153498	-1.0580710147822083	-0.9873695416418019	1.3671273280767646	-1.0445457376615814	-1.0798654556622458	1.2508953634052387	-0.9139288874716911	-1.0447996421564876	1.0932730787042477	-0.8041764247531283	-0.9118805168061356	0.9782402975222304	-0.8860044259097726	-1.0807878316492365	1.2519728331473259	-1.1784018970348749	-1.0443395019317256	1.0796331098561858	-1.2647168519394691	-0.9047437551115325	0.9858976862392499	-1.1630392336150224
56	0.9333333333333332	-1.0509536811851445	0.8918309987488651	-0.9744143348436232	-0.8757509409963989	0.8812082989308777	-0.7314325006190767	-0.8533082050085309	0.8452566774705883	-0.9630787439284769	-0.7484210393758826	0.838382178574325	-1.0292455540402519	-0.7712965666679401	0.8177981333303904	-1.0250874418498699	-0.8705104180300575	0.8490462851955786	-1.0079224993672613	-1.0515141793952045	0.8924503720457836	-1.1185903523534648	-0.8779817770876527	0.8837010593626875	-1.3568360942573605	-0.8896657044903462	0.8616342284072716	-1.1239686370823567	-0.7891520544483109	0.8534252192354872	-1.0580377460018777	-0.812883784928429	0.8336344480548658	-1.061909024974951	-0.911476336693183	0.8682742339462756	-1.0793838017949877	-1.0726387609152346	1.3017801463646832	-1.0459063967165165	-1.0377460139653436	1.459424503474646	-1.0580657797922788	-0.9873653767626981	1.364942893742063	-1.0445524698407218	-1.0798569599416008	1.2487119668715174	-0.9139300635335308	-1.04499322280018	1.0920137279631206	-0.8029832645875714	-0.913085499324417	0.9756086379163662	-0.8845311543804811	-1.0807841291249227	1.2497890659573156	-1.178407759588417	-1.044336688139977	1.0774505982335256	-1.2647214982636104	-0.9048165285526314	0.9825856970135891	-1.1641401239045202
57	0.95	-1.0509505924413083	0.8898676441636952	-0.9744172901904353	-0.8757470863935064	0.8792453603938056	-0.7314393174906892	-0.8525280029876708	0.8429622559103965	-0.9629656003049376	-0.7474299354779553	0.8360464674726337	-1.0287884923580592	-0.7703089587897228	0.8154574257074231	-1.024673486537598	-0.869594882766912	0.8466817858917439	-1.0078664443066356	-1.0515114843724322	0.8904871992323051	-1.118593073520387	-0.8779801895001862	0.8817386486229724	-1.3568404582627909	-0.8896633361310651	0.8596714780391769	-1.123973236577793	-0.7891495441623595	0.8514625944333043	-1.0580438734416138	-0.8128812640073858	0.8316718776779765	-1.0619148203982396	-0.9114737870989127	0.8663113649609971	-1.079388287257117	-1.0726354653828911	1.2998146313128387	-1.0459116658218228	-1.0377365059306043	1.4574648665011867	-1.0580610572909617	-0.9873616407887505	1.362977414013885	-1.0445585109960542	-1.0798512290808282	1.2467470197657409	-0.9139324988660369	-1.0451686152386235	1.0908884711404834	-0.8019150303824615	-0.914177164008054	0.9732505542723898	-0.883192817146095	-1.0807808051042653	1.2478241872218925	-1.1784130097124637	-1.0443341603554201	1.0754868488379323	-1.2647256597237542	-0.9048892971602581	0.9796109603797307	-1.1651357584543214
58	0.9666666666666668	-1.0509478650124533	0.8881335502512887	-0.9744198982826793	-0.8757436817782613	0.8775116330668048	-0.7314453432021664	-0.8518390455281573	0.8409361774305978	-0.9628632657123978	-0.7465555591998834	0.8339843855090893	-1.0283818112223704	-0.7694375600185238	0.8133908819524064	-1.0243048793376348	-0.8687862163003347	0.844593798883291	-1.007814093865917	-1.0515091048047491	0.8887532657102333	-1.1185954712478345	-0.8779787871010698	0.880005387371369	-1.3568443039166493	-0.8896612440317527	0.8579379171270003	-1.1239772958719505	-0.7891473262106756	0.8497291441559293	-1.058049285038994	-0.812879036607027	0.8299384755144417	-1.0619199385185796	-0.9114715350889956	0.8645776993786548	-1.0793922464412515	-1.0726324643252971	1.2980786524581467	-1.0459162384831282	-1.0377281064723005	1.4557340503835055	-1.0580568766547565	-0.9873583535340423	1.3612414416399408	-1.0445638367403596	-1.0798474129173579	1.2450112581623494	-0.9139355437009169	-1.0453244788185143	1.0899007872370394	-0.8009757778948211	-0.915147206654491	0.9711757233256924	-0.8820007873703214	-1.0807778750142705	1.2460887470582618	-1.178417627319204	-1.0443319308395576	1.073752405843859	-1.264729320237002	-0.9049593084554628	0.9769877805446587	-1.1660191046392316
